<?xml version="1.0" encoding="UTF-8"?>
<svg xmlns="http://www.w3.org/2000/svg" xmlns:xlink="http://www.w3.org/1999/xlink" width="375pt" height="374.999991pt" viewBox="0 0 375 374.999991" version="1.2">
<defs>
<filter id="alpha" filterUnits="objectBoundingBox" x="0%" y="0%" width="100%" height="100%">
  <feColorMatrix type="matrix" in="SourceGraphic" values="0 0 0 0 1 0 0 0 0 1 0 0 0 0 1 0 0 0 1 0"/>
</filter>
<mask id="mask0">
  <g filter="url(#alpha)">
<rect x="0" y="0" width="375" height="374.999991" style="fill:rgb(0%,0%,0%);fill-opacity:0.498;stroke:none;"/>
  </g>
</mask>
<clipPath id="clip2">
  <path d="M 0.953125 0.199219 L 372.203125 0.199219 L 372.203125 368 L 0.953125 368 Z M 0.953125 0.199219 "/>
</clipPath>
<clipPath id="clip1">
  <rect x="0" y="0" width="373" height="368"/>
</clipPath>
<g id="surface5" clip-path="url(#clip1)">
<g clip-path="url(#clip2)" clip-rule="nonzero">
<path style=" stroke:none;fill-rule:nonzero;fill:rgb(100%,100%,100%);fill-opacity:1;" d="M 342.070312 72.199219 C 299.664062 59.722656 255.523438 17.34375 244.804688 27.386719 C 230.488281 39.527344 212.414062 46.386719 194.152344 49.992188 C 194.085938 29.257812 193.703125 35.816406 198.589844 30.117188 C 205.71875 24.105469 205.542969 12.15625 199.035156 5.757812 C 186.890625 -6.929688 166.347656 5.0625 169.441406 20.734375 C 170.019531 26.449219 174.59375 30.234375 178.53125 33.859375 C 179.449219 39.171875 178.914062 44.605469 179.0625 49.976562 C 163.5 46.980469 148.234375 41.414062 135.03125 32.535156 C 130.875 29.925781 127.28125 24.386719 121.667969 26.09375 C 101.8125 30.777344 69.976562 59.703125 33.472656 71.484375 C 22.972656 75.167969 11.613281 74.378906 0.953125 77.332031 L 0.953125 78.59375 C 12.726562 82.765625 25.8125 82.5 37.972656 80.183594 C 41.769531 83.429688 38.292969 87.980469 64.777344 79.484375 C 70.035156 84.769531 77.402344 81.191406 83.460938 79.617188 C 86.710938 78.417969 89.996094 80.109375 93.203125 80.597656 C 97.628906 81.832031 102.023438 79.929688 106.402344 79.542969 C 110.339844 79.765625 114.214844 80.878906 118.164062 80.496094 C 122.351562 80.167969 126.15625 78.238281 130.179688 77.199219 C 133.964844 77.585938 137.738281 79.097656 141.597656 78.355469 C 145.625 77.703125 149.082031 75.449219 152.808594 73.949219 C 160.777344 73.550781 159.539062 79.144531 179.289062 66.097656 C 179.71875 98.78125 180.402344 131.484375 180.625 164.183594 C 151.671875 152.5 113.820312 149.390625 108.230469 137.894531 C 106 129.34375 113.53125 121.566406 121.179688 119.148438 C 129.730469 117.378906 138.625 118.703125 147.253906 117.15625 C 156.347656 115.53125 160.074219 112.558594 168.410156 105.402344 C 169.085938 104.824219 168.960938 103.746094 168.171875 103.335938 C 156.042969 97.027344 157.285156 103.164062 137.480469 94.449219 C 133.359375 92.632812 128.691406 98.550781 121.699219 101.691406 C 112.34375 106.054688 102.957031 111.636719 97.253906 120.527344 C 91.136719 129.820312 92.5625 142.835938 99.484375 151.3125 C 112.128906 166.835938 140.523438 169.976562 167.410156 177.140625 C 163.367188 180.542969 159.253906 183.910156 155.929688 188.039062 C 147.125 198.726562 143.039062 213.34375 145.445312 227.015625 C 148.386719 240.183594 160.546875 247.992188 171.449219 254.300781 C 163.386719 259.746094 155.335938 266.011719 150.894531 274.917969 C 138.179688 301.605469 158.164062 312.445312 180.449219 328.753906 C 173.160156 337.898438 162.742188 353.34375 168.703125 363.472656 C 171.464844 353.421875 169.003906 349.648438 183.046875 336.324219 C 183.449219 346.847656 183.359375 357.386719 183.507812 367.925781 C 185.554688 367.925781 187.605469 367.941406 189.65625 367.941406 C 189.730469 357.386719 189.820312 346.820312 190.042969 336.265625 C 204.707031 350.421875 201.371094 353.105469 204.503906 363.386719 C 205.605469 360.726562 206.777344 357.921875 206.078125 355 C 204.9375 344.90625 198.921875 336.339844 192.566406 328.753906 C 213.257812 314.132812 231.261719 303.761719 224.671875 281.269531 C 221.550781 269.273438 211.632812 260.917969 201.789062 254.238281 C 224.113281 241.621094 233.289062 229.71875 226.15625 204.527344 C 222.933594 193.246094 214.78125 184.265625 205.796875 177.082031 C 225.355469 171.78125 246.144531 169.40625 264.097656 159.445312 C 279.910156 150.957031 294.226562 121.921875 252.472656 102.195312 C 247.675781 100.167969 243.613281 95.445312 238.460938 94.429688 C 233.945312 93.539062 230.667969 98.042969 223.363281 98.945312 C 213.746094 100.128906 200.097656 101.414062 205.277344 105.910156 C 209.695312 109.75 215.085938 114.566406 220.855469 116.117188 C 230.300781 118.65625 240.160156 117.632812 249.769531 118.671875 C 258.128906 120.109375 266.386719 127.621094 265.195312 136.675781 C 262.160156 148.941406 223.707031 151.890625 192.566406 164.121094 C 192.699219 131.421875 193.546875 98.722656 193.796875 66.023438 C 212.867188 78.613281 211.613281 73.925781 220.304688 73.890625 C 224.03125 75.433594 227.476562 77.824219 231.5625 78.34375 C 235.4375 78.996094 239.222656 77.628906 243.054688 77.257812 C 247.019531 78.253906 250.792969 80.125 254.921875 80.480469 C 258.945312 80.96875 262.878906 79.738281 266.875 79.515625 C 271.210938 80.003906 275.5625 81.785156 279.941406 80.585938 C 283.136719 80.09375 286.402344 78.445312 289.65625 79.605469 C 295.714844 81.105469 303.0625 84.816406 308.277344 79.472656 C 332.679688 87.890625 332.003906 83.570312 335.15625 80.226562 C 347.363281 82.722656 360.175781 82.246094 372.207031 79.011719 L 372.207031 77.585938 C 362.464844 74.203125 351.878906 75.328125 342.074219 72.195312 Z M 139.171875 103.214844 C 139.171875 108.453125 131.242188 108.457031 131.242188 103.214844 C 131.242188 97.980469 139.171875 97.972656 139.171875 103.214844 Z M 161.046875 225.011719 C 157.425781 209.410156 167.152344 193.410156 181.035156 186.492188 C 181.273438 205.402344 181.691406 224.3125 181.882812 243.222656 C 173.9375 238.652344 164.597656 234.050781 161.046875 225.011719 Z M 161.597656 298.53125 C 157.664062 293.976562 158.925781 287.308594 161.375 282.367188 C 165.679688 274.011719 174.132812 269.214844 181.824219 264.449219 C 182.820312 282.589844 182.386719 300.789062 182.9375 318.941406 C 175.347656 312.691406 167.863281 306.128906 161.597656 298.53125 Z M 235.414062 107.179688 C 230.175781 107.179688 230.171875 99.253906 235.414062 99.253906 C 240.65625 99.253906 240.660156 107.179688 235.414062 107.179688 Z M 212.742188 284.429688 C 216.941406 296.433594 212.007812 299.707031 190.214844 319.078125 C 190.601562 300.863281 190.617188 282.648438 191.136719 264.4375 C 199.523438 269.511719 208.851562 274.886719 212.742188 284.429688 Z M 212.398438 223.929688 C 209.488281 233.710938 199.363281 238.429688 191.238281 243.285156 C 191.59375 224.3125 191.757812 205.359375 192.160156 186.390625 C 205.613281 193.367188 215.238281 208.535156 212.398438 223.925781 Z M 212.398438 223.929688 "/>
</g>
</g>
</defs>
<g id="surface1">
<use xlink:href="#surface5" transform="matrix(1,0,0,1,1,7)" mask="url(#mask0)"/>
</g>
</svg>
