<?xml version="1.0" encoding="UTF-8"?>
<svg xmlns="http://www.w3.org/2000/svg" xmlns:xlink="http://www.w3.org/1999/xlink" width="375pt" height="374.999991pt" viewBox="0 0 375 374.999991" version="1.2">
<defs>
<filter id="alpha" filterUnits="objectBoundingBox" x="0%" y="0%" width="100%" height="100%">
  <feColorMatrix type="matrix" in="SourceGraphic" values="0 0 0 0 1 0 0 0 0 1 0 0 0 0 1 0 0 0 1 0"/>
</filter>
<mask id="mask0">
  <g filter="url(#alpha)">
<rect x="0" y="0" width="375" height="374.999991" style="fill:rgb(0%,0%,0%);fill-opacity:0.498;stroke:none;"/>
  </g>
</mask>
<clipPath id="clip1">
  <rect x="0" y="0" width="375" height="375"/>
</clipPath>
<g id="surface5" clip-path="url(#clip1)">
<path style=" stroke:none;fill-rule:nonzero;fill:rgb(100%,100%,100%);fill-opacity:1;" d="M 333.332031 0 L 41.667969 0 C 18.644531 0 0.207031 18.644531 0.207031 41.667969 L 0 333.332031 C 0 356.355469 18.644531 375 41.667969 375 L 333.332031 375 C 356.355469 375 375 356.355469 375 333.332031 L 375 41.667969 C 375 18.644531 356.355469 0 333.332031 0 Z M 312.5 229.167969 L 229.167969 229.167969 L 229.167969 312.5 L 145.832031 312.5 L 145.832031 229.167969 L 62.5 229.167969 L 62.5 145.832031 L 145.832031 145.832031 L 145.832031 62.5 L 229.167969 62.5 L 229.167969 145.832031 L 312.5 145.832031 Z M 312.5 229.167969 "/>
</g>
</defs>
<g id="surface1">
<use xlink:href="#surface5" transform="matrix(1,0,0,1,0,0)" mask="url(#mask0)"/>
</g>
</svg>
