<?xml version="1.0" encoding="UTF-8"?>
<svg xmlns="http://www.w3.org/2000/svg" xmlns:xlink="http://www.w3.org/1999/xlink" width="375pt" height="374.999991pt" viewBox="0 0 375 374.999991" version="1.2">
<defs>
<filter id="alpha" filterUnits="objectBoundingBox" x="0%" y="0%" width="100%" height="100%">
  <feColorMatrix type="matrix" in="SourceGraphic" values="0 0 0 0 1 0 0 0 0 1 0 0 0 0 1 0 0 0 1 0"/>
</filter>
<mask id="mask0">
  <g filter="url(#alpha)">
<rect x="0" y="0" width="375" height="374.999991" style="fill:rgb(0%,0%,0%);fill-opacity:0.498;stroke:none;"/>
  </g>
</mask>
<clipPath id="clip2">
  <path d="M 1 1 L 373.679688 1 L 373.679688 372.40625 L 1 372.40625 Z M 1 1 "/>
</clipPath>
<clipPath id="clip1">
  <rect x="0" y="0" width="374" height="373"/>
</clipPath>
<g id="surface5" clip-path="url(#clip1)">
<g clip-path="url(#clip2)" clip-rule="nonzero">
<path style=" stroke:none;fill-rule:nonzero;fill:rgb(100%,100%,100%);fill-opacity:1;" d="M 370.078125 92.574219 L 282.035156 4.574219 C 277.867188 0.40625 271.074219 0.40625 266.90625 4.574219 C 262.734375 8.742188 262.734375 15.527344 266.90625 19.695312 L 285.132812 37.914062 C 284.777344 38.152344 284.539062 38.511719 284.179688 38.75 L 259.757812 63.160156 L 241.527344 44.941406 L 79.261719 207.363281 L 108.929688 237.015625 L 79.261719 266.546875 L 85.933594 273.214844 L 4.921875 354.1875 C 0.75 358.355469 0.75 365.140625 4.921875 369.308594 C 7.066406 371.453125 9.804688 372.40625 12.546875 372.40625 C 15.285156 372.40625 18.027344 371.335938 20.171875 369.308594 L 101.183594 288.335938 L 107.855469 295.003906 L 137.402344 265.472656 L 167.066406 295.125 L 329.332031 132.941406 L 311.105469 114.722656 L 335.527344 90.308594 C 335.886719 89.953125 336.125 89.714844 336.363281 89.359375 L 354.589844 107.578125 C 356.734375 109.71875 359.476562 110.671875 362.214844 110.671875 C 364.957031 110.671875 367.695312 109.601562 369.839844 107.578125 C 374.25 103.527344 374.25 96.742188 370.078125 92.574219 Z M 167.1875 264.996094 L 109.523438 207.363281 L 123.941406 192.957031 L 150.03125 219.035156 C 152.175781 221.175781 154.914062 222.128906 157.65625 222.128906 C 160.394531 222.128906 163.136719 221.058594 165.28125 219.035156 C 169.449219 214.867188 169.449219 208.078125 165.28125 203.910156 L 139.1875 177.832031 L 168.019531 149.015625 L 194.113281 175.09375 C 196.257812 177.238281 198.996094 178.191406 201.738281 178.191406 C 204.476562 178.191406 207.21875 177.117188 209.363281 175.09375 C 213.53125 170.925781 213.53125 164.136719 209.363281 159.972656 L 183.269531 133.894531 L 212.101562 105.074219 L 238.191406 131.152344 C 240.335938 133.296875 243.078125 134.25 245.816406 134.25 C 248.558594 134.25 251.296875 133.179688 253.441406 131.152344 C 257.613281 126.984375 257.613281 120.199219 253.441406 116.03125 L 227.113281 89.832031 L 241.527344 75.425781 L 299.191406 133.058594 Z M 296.09375 99.71875 L 274.886719 78.519531 L 299.3125 54.109375 L 320.519531 75.304688 Z M 296.09375 99.71875 "/>
</g>
</g>
</defs>
<g id="surface1">
<use xlink:href="#surface5" transform="matrix(1,0,0,1,0,1)" mask="url(#mask0)"/>
</g>
</svg>
